<?xml version="1.0" standalone="no"?>
<!DOCTYPE svg PUBLIC "-//W3C//DTD SVG 20010904//EN"
 "http://www.w3.org/TR/2001/REC-SVG-20010904/DTD/svg10.dtd">
<svg version="1.0" xmlns="http://www.w3.org/2000/svg"
 width="1060.000000pt" height="1280.000000pt" viewBox="0 0 1060.000000 1280.000000"
 preserveAspectRatio="xMidYMid meet">
<metadata>
Created by potrace 1.15, written by Peter Selinger 2001-2017
</metadata>
<g transform="translate(0.000000,1280.000000) scale(0.100000,-0.100000)"
fill="#000000" stroke="none">
<path d="M9865 12786 c-22 -7 -96 -42 -165 -77 -462 -239 -952 -366 -1765
-459 -99 -11 -216 -25 -260 -30 -690 -86 -1421 -96 -2285 -30 -306 23 -556 62
-762 119 -196 53 -237 61 -324 61 -72 0 -141 -21 -158 -49 -3 -5 5 -34 19 -65
36 -82 129 -347 169 -483 191 -645 301 -1407 299 -2068 -2 -821 -112 -1947
-292 -2996 -91 -527 -114 -638 -196 -969 -106 -422 -251 -887 -523 -1675 -55
-159 -126 -364 -157 -455 -75 -217 -107 -284 -169 -345 -87 -87 -169 -95 -305
-30 -92 44 -131 71 -320 223 -85 68 -173 136 -196 152 -146 100 -447 202 -679
231 -129 16 -352 6 -474 -20 -354 -77 -727 -291 -937 -538 -174 -204 -302
-479 -362 -779 -26 -133 -23 -385 6 -524 81 -383 256 -702 529 -962 303 -288
745 -431 1225 -397 249 18 455 69 642 159 362 174 703 507 910 885 46 85 199
436 270 620 80 208 192 570 385 1245 141 496 219 761 300 1025 355 1160 484
1805 644 3235 61 537 106 1135 122 1598 l7 202 26 0 c14 0 80 -11 146 -25 66
-14 152 -32 190 -40 401 -83 1505 -101 2175 -35 224 22 587 73 955 135 645
108 1039 218 1414 396 68 33 125 58 127 57 1 -2 8 -172 15 -378 19 -597 5
-1506 -31 -1945 -54 -655 -231 -1824 -416 -2745 -165 -819 -297 -1287 -556
-1975 -61 -159 -115 -306 -121 -325 -17 -51 -84 -115 -136 -131 -38 -11 -53
-11 -110 4 -94 25 -184 80 -398 245 -236 181 -274 206 -401 259 -247 102 -445
145 -677 145 -288 -1 -511 -63 -805 -224 -423 -233 -687 -607 -790 -1122 -24
-119 -27 -338 -6 -466 44 -265 154 -531 316 -762 87 -125 281 -318 395 -394
390 -259 917 -332 1429 -197 483 126 962 546 1211 1058 125 256 526 1428 740
2160 244 834 415 1567 546 2335 148 869 228 1617 281 2605 16 304 16 1507 0
1860 -36 780 -64 1052 -153 1477 -119 573 -250 1003 -351 1158 -50 76 -116 97
-213 66z m109 -1623 c30 -144 76 -511 76 -615 l0 -36 -152 -76 c-471 -232
-910 -347 -1903 -495 -226 -34 -485 -64 -720 -83 -215 -18 -1310 -17 -1520 0
-292 25 -439 46 -610 90 l-70 18 -2 65 c-11 294 -40 675 -59 758 l-5 24 108
-6 c59 -4 212 -13 338 -21 612 -40 1310 -51 1670 -27 742 49 1201 117 1985
296 337 77 760 172 790 178 57 10 56 11 74 -70z"/>
</g>
</svg>
